HIERARCHY
ROOT hips
{
  OFFSET 0 9.313263304106702 1.2146308026317778
  CHANNELS 6 Xposition Yposition Zposition Yrotation Xrotation Zrotation
  JOINT spine
  {
    OFFSET -6.402521e-31 0.5173342420023708 0
    CHANNELS 3 Yrotation Xrotation Zrotation
    JOINT chest
    {
      OFFSET 0 1.130544299341115 0
      CHANNELS 3 Yrotation Xrotation Zrotation
      JOINT upperChest
      {
        OFFSET 0 1.0863555061129995 0
        CHANNELS 3 Yrotation Xrotation Zrotation
        JOINT neck
        {
          OFFSET 0 1.3773706506454462 0
          CHANNELS 3 Yrotation Xrotation Zrotation
          JOINT head
          {
            OFFSET 0 0.7374408940073979 0
            CHANNELS 3 Yrotation Xrotation Zrotation
            JOINT leftEye
            {
              OFFSET 0.25066580148932727 0.6408406698778757 0.15963719178883284
              CHANNELS 3 Yrotation Xrotation Zrotation
              End Site
              {
                OFFSET 0.25066580148932727 0.6408406698778757 0.15963719178883284
              }
            }
            JOINT rightEye
            {
              OFFSET -0.25066576739704244 0.6408406384191823 0.15963727561643756
              CHANNELS 3 Yrotation Xrotation Zrotation
              End Site
              {
                OFFSET -0.25066576739704244 0.6408406384191823 0.15963727561643756
              }
            }
          }
        }
        JOINT leftShoulder
        {
          OFFSET 0.3761817444281191 1.0539491987447769 0
          CHANNELS 3 Yrotation Xrotation Zrotation
          JOINT leftUpperArm
          {
            OFFSET 0.8702844380000002 0 0
            CHANNELS 3 Yrotation Xrotation Zrotation
            JOINT leftLowerArm
            {
              OFFSET 2.198527310000323 0 0
              CHANNELS 3 Yrotation Xrotation Zrotation
              JOINT leftHand
              {
                OFFSET 2.146852313968281 0 0
                CHANNELS 3 Yrotation Xrotation Zrotation
                JOINT leftIndexProximal
                {
                  OFFSET 0.6585177834681599 0.07380250427007962 0.18382213159631788
                  CHANNELS 3 Yrotation Xrotation Zrotation
                  JOINT leftIndexIntermediate
                  {
                    OFFSET 0.3323021288626682 -0.009606893929485771 -0.012820872253340998
                    CHANNELS 3 Yrotation Xrotation Zrotation
                    JOINT leftIndexDistal
                    {
                      OFFSET 0.2045908926985518 -0.0071133989147997845 -0.006828784783599051
                      CHANNELS 3 Yrotation Xrotation Zrotation
                      End Site
                      {
                        OFFSET 0.2045908926985518 -0.0071133989147997845 -0.006828784783599051
                      }
                    }
                  }
                }
                JOINT leftLittleProximal
                {
                  OFFSET 0.6110054258835662 0.07380246363125398 -0.29175655876064077
                  CHANNELS 3 Yrotation Xrotation Zrotation
                  JOINT leftLittleIntermediate
                  {
                    OFFSET 0.3144281999999998 -2.5124724523095665e-9 1.8658118799974588e-7
                    CHANNELS 3 Yrotation Xrotation Zrotation
                    JOINT leftLittleDistal
                    {
                      OFFSET 0.18116185580251631 0.002815456192251098 0.0034826415518049436
                      CHANNELS 3 Yrotation Xrotation Zrotation
                      End Site
                      {
                        OFFSET 0.18116185580251631 0.002815456192251098 0.0034826415518049436
                      }
                    }
                  }
                }
                JOINT leftMiddleProximal
                {
                  OFFSET 0.6637478005691111 0.07380246480054087 0.02046981859247815
                  CHANNELS 3 Yrotation Xrotation Zrotation
                  JOINT leftMiddleIntermediate
                  {
                    OFFSET 0.3705733999999994 -2.9611069152224445e-9 9.35054791928458e-8
                    CHANNELS 3 Yrotation Xrotation Zrotation
                    JOINT leftMiddleDistal
                    {
                      OFFSET 0.22861063500000056 -1.82673876025774e-9 -1.6740782024515788e-7
                      CHANNELS 3 Yrotation Xrotation Zrotation
                      End Site
                      {
                        OFFSET 0.22861063500000056 -1.82673876025774e-9 -1.6740782024515788e-7
                      }
                    }
                  }
                }
                JOINT leftRingProximal
                {
                  OFFSET 0.6561845547265777 0.07380246406440083 -0.13588087571513918
                  CHANNELS 3 Yrotation Xrotation Zrotation
                  JOINT leftRingIntermediate
                  {
                    OFFSET 0.3437531000000005 -2.746796123886952e-9 1.4935781944558357e-7
                    CHANNELS 3 Yrotation Xrotation Zrotation
                    JOINT leftRingDistal
                    {
                      OFFSET 0.1983118991198174 -0.002467117924596085 -0.004538141969590015
                      CHANNELS 3 Yrotation Xrotation Zrotation
                      End Site
                      {
                        OFFSET 0.1983118991198174 -0.002467117924596085 -0.004538141969590015
                      }
                    }
                  }
                }
                JOINT leftThumbProximal
                {
                  OFFSET 0.09767004258864787 -0.14930060425447422 -0.07008212897521154
                  CHANNELS 3 Yrotation Xrotation Zrotation
                  JOINT leftThumbIntermediate
                  {
                    OFFSET 0.36682123028154767 -0.015768465060082004 0.28693641268151077
                    CHANNELS 3 Yrotation Xrotation Zrotation
                    JOINT leftThumbDistal
                    {
                      OFFSET 0.21091084272403915 -0.016756648201192714 0.1933767059105508
                      CHANNELS 3 Yrotation Xrotation Zrotation
                      End Site
                      {
                        OFFSET 0.21091084272403915 -0.016756648201192714 0.1933767059105508
                      }
                    }
                  }
                }
              }
            }
          }
        }
        JOINT rightShoulder
        {
          OFFSET -0.37618174442811925 1.0539491987447769 0
          CHANNELS 3 Yrotation Xrotation Zrotation
          JOINT rightUpperArm
          {
            OFFSET -0.870284438 0 0
            CHANNELS 3 Yrotation Xrotation Zrotation
            JOINT rightLowerArm
            {
              OFFSET -2.1985273100003235 0 0
              CHANNELS 3 Yrotation Xrotation Zrotation
              JOINT rightHand
              {
                OFFSET -2.1468523139682802 0 0
                CHANNELS 3 Yrotation Xrotation Zrotation
                JOINT rightIndexProximal
                {
                  OFFSET -0.6585177834681599 0.07380250427007962 0.18382213159631788
                  CHANNELS 3 Yrotation Xrotation Zrotation
                  JOINT rightIndexIntermediate
                  {
                    OFFSET -0.3323021288626682 -0.009606893929485771 -0.012820872253340998
                    CHANNELS 3 Yrotation Xrotation Zrotation
                    JOINT rightIndexDistal
                    {
                      OFFSET -0.2045908926985518 -0.0071133989147997845 -0.006828784783599051
                      CHANNELS 3 Yrotation Xrotation Zrotation
                      End Site
                      {
                        OFFSET -0.2045908926985518 -0.0071133989147997845 -0.006828784783599051
                      }
                    }
                  }
                }
                JOINT rightLittleProximal
                {
                  OFFSET -0.6110054258835662 0.07380246363125398 -0.29175655876064077
                  CHANNELS 3 Yrotation Xrotation Zrotation
                  JOINT rightLittleIntermediate
                  {
                    OFFSET -0.3144281999999998 -2.5124724523095665e-9 1.8658118799974588e-7
                    CHANNELS 3 Yrotation Xrotation Zrotation
                    JOINT rightLittleDistal
                    {
                      OFFSET -0.18116185580251631 0.002815456192251098 0.0034826415518049436
                      CHANNELS 3 Yrotation Xrotation Zrotation
                      End Site
                      {
                        OFFSET -0.18116185580251631 0.002815456192251098 0.0034826415518049436
                      }
                    }
                  }
                }
                JOINT rightMiddleProximal
                {
                  OFFSET -0.6637478005691111 0.07380246480054087 0.02046981859247815
                  CHANNELS 3 Yrotation Xrotation Zrotation
                  JOINT rightMiddleIntermediate
                  {
                    OFFSET -0.3705733999999994 -2.9611069152224445e-9 9.35054791928458e-8
                    CHANNELS 3 Yrotation Xrotation Zrotation
                    JOINT rightMiddleDistal
                    {
                      OFFSET -0.22861063500000056 -1.82673876025774e-9 -1.6740782024515788e-7
                      CHANNELS 3 Yrotation Xrotation Zrotation
                      End Site
                      {
                        OFFSET -0.22861063500000056 -1.82673876025774e-9 -1.6740782024515788e-7
                      }
                    }
                  }
                }
                JOINT rightRingProximal
                {
                  OFFSET -0.6561845547265777 0.07380246406440083 -0.13588087571513918
                  CHANNELS 3 Yrotation Xrotation Zrotation
                  JOINT rightRingIntermediate
                  {
                    OFFSET -0.3437531000000005 -2.746796123886952e-9 1.4935781944558357e-7
                    CHANNELS 3 Yrotation Xrotation Zrotation
                    JOINT rightRingDistal
                    {
                      OFFSET -0.1983118991198174 -0.002467117924596085 -0.004538141969590015
                      CHANNELS 3 Yrotation Xrotation Zrotation
                      End Site
                      {
                        OFFSET -0.1983118991198174 -0.002467117924596085 -0.004538141969590015
                      }
                    }
                  }
                }
                JOINT rightThumbProximal
                {
                  OFFSET -0.09767004258864787 -0.14930060425447422 -0.07008212897521154
                  CHANNELS 3 Yrotation Xrotation Zrotation
                  JOINT rightThumbIntermediate
                  {
                    OFFSET -0.36682123028154767 -0.015768465060082004 0.28693641268151077
                    CHANNELS 3 Yrotation Xrotation Zrotation
                    JOINT rightThumbDistal
                    {
                      OFFSET -0.21091084272403915 -0.016756648201192714 0.1933767059105508
                      CHANNELS 3 Yrotation Xrotation Zrotation
                      End Site
                      {
                        OFFSET -0.21091084272403915 -0.016756648201192714 0.1933767059105508
                      }
                    }
                  }
                }
              }
            }
          }
        }
      }
    }
  }
  JOINT leftUpperLeg
  {
    OFFSET 0.7715603 -0.3993844658041501 0
    CHANNELS 3 Yrotation Xrotation Zrotation
    JOINT leftLowerLeg
    {
      OFFSET 0 -3.529830000249343 0
      CHANNELS 3 Yrotation Xrotation Zrotation
      JOINT leftFoot
      {
        OFFSET 0 -4.154939295409685 0.004208579085223096
        CHANNELS 3 Yrotation Xrotation Zrotation
        JOINT leftToes
        {
          OFFSET 0 -0.6353414391261847 1.10414981190622
          CHANNELS 3 Yrotation Xrotation Zrotation
          End Site
          {
            OFFSET 0 -0.6015820691747853 1.10414981190622
          }
        }
      }
    }
  }
  JOINT rightUpperLeg
  {
    OFFSET -0.7715603 -0.3993844658041501 0
    CHANNELS 3 Yrotation Xrotation Zrotation
    JOINT rightLowerLeg
    {
      OFFSET 0 -3.529830000249343 0
      CHANNELS 3 Yrotation Xrotation Zrotation
      JOINT rightFoot
      {
        OFFSET 0 -4.154939295409685 0.004208579085223096
        CHANNELS 3 Yrotation Xrotation Zrotation
        JOINT rightToes
        {
          OFFSET 0 -0.6353414391261847 1.10414981190622
          CHANNELS 3 Yrotation Xrotation Zrotation
          End Site
          {
            OFFSET 0 -0.6015820691747853 1.10414981190622
          }
        }
      }
    }
  }
}
MOTION
Frames: 4
Frame Time: 0.03333333333333333
-0.049353438344868744 8.841874382712623 1.3730157868215915 0.42357711473079546 -7.403119922965038 -0.3918763181831249 -0.1650887751562955 1.3373304178173189 0.1289727327597164 -0.6497404878764573 5.335518146141851 0.42017179695875734 0 0 0 -0.4761623667590127 4.720672888505446 0.6470067898476872 -1.3835145172301448 4.574896578512018 -0.6750554432710001 0 0 0 0 0 0 -15.129927550759575 1.4494125104459474 -1.221992250553473 -22.79762193627876 -27.164606798529057 -52.97760914223957 -19.463259509438338 -0.000006751667228925796 0.000009602696496950625 0.21042607676873187 21.49457053741209 -15.655511717095582 -1.5619739391735983 -2.5854597781192488 -35.097859615736084 3.5302090146197225 0.9656930632671006 -30.573140574899906 0.617518104056051 0.02825922848578893 -5.186893489477199 8.37775112913781 4.895739755834383 -39.44874820332426 -3.130042393281828 0.08694345231287928 -8.416386005098921 0.3061766745539475 0.016332941870523483 -2.603338296404219 3.3255345424022105 0.8444618011795236 -31.18707099046122 3.9672468079053815 1.2480461845187396 -34.95435628213511 0.9643531195020704 0.0674030236696842 -7.996781310876602 7.533948439643122 4.004581243826101 -37.472374850920204 2.5139586205709663 0.4733926706067758 -21.31347236676046 0.5695106453433574 0.02354858860574292 -4.724376700814132 8.6913119881934 1.3896770838114332 4.068383033296787 24.116828459495526 7.498719070292939 0.4512805435352706 12.008184379261149 2.9709375279077195 0.8145677827870145 9.765261114303732 2.0045123209002274 8.238637132012824 54.02318549410994 -14.416218854715101 27.41095660142127 9.10261179914947 0.000007279803371781433 -0.000006154379211741371 2.5887036606524614 -2.526491368386287 4.34825015774215 -2.2165068252746147 0.13716624443049608 32.008418580900056 -3.3121639154459688 0.8453586278217632 28.559645388655888 -1.1203951866205424 0.08876160545057897 9.148490400408601 -7.485272164200944 2.9513069669582124 26.54189596766969 -2.8077663662898056 0.5614983487636832 24.445338911637624 -0.7098596089648452 0.02124559238230224 5.361824776149976 -6.81638430997523 2.58459893861383 26.27988614363291 -2.7280604144941396 0.5793932641548566 23.82733947013042 -1.3708492546020723 0.12800879051429775 11.011612394901878 -6.94060141761252 2.7179688409383913 27.12350468465294 -2.2639273064985996 0.37101265218043483 18.69607306146591 -0.7351188183805124 0.03956152936839175 5.937412821593526 -8.941801213661101 -7.867061438272671 -4.396655581611434 -27.364356133084158 10.757490073121197 -3.9853136306411407 -6.731135032419714 1.2304874240036954 -2.1753018445290007 7.5763575622055415 -5.563085349935615 3.0355189809079097 8.539206583426632 22.804667090908215 5.552414711902743 0.8332262278992997 -14.048338948051413 -5.327099686985518 0.000002831325733034368 -1.3882908951563129 0.0000014706244313200429 -5.832992754541428 -5.008826759144865 -1.0025362708714052 -10.871418701413667 23.181100293584777 -4.846441589939787 -0.6394851849663452 -16.218352980944708 3.1887069529847345 -0.00000601553624892224 -3.866858196284291 -0.0000036109206945773693
-0.052278576926751565 8.841874382712623 1.3847428787625582 0.433693921986065 -7.560613491831759 -0.40812622178924157 -0.15742569774289883 1.3067427713495785 0.13234834846677015 -0.6180189046208429 5.197014025673723 0.4181974529316364 0 0 0 -0.47168451218906643 4.747060411345066 0.61598350823587 -1.3802430973669568 5.062442365477868 -0.7286265869554456 0 0 0 0 0 0 -15.13210802286975 1.4634006677092535 -1.0942458784205762 -22.441475037260464 -27.054544438993734 -53.159934114387305 -19.45354005417177 -0.000009179630003441706 0.000011122476868612131 0.3189209056311685 21.384919420111764 -15.559234031692935 -1.457886102965195 -2.5281678895859816 -35.20091044855958 3.525316820060132 0.9627853388043831 -30.526196925836537 0.6208349605251344 0.02856401570981377 -5.214453364896682 8.347281643795455 4.863688180485138 -39.394653082861915 -3.1329074886161 0.08644533485103467 -8.39216621029713 0.30731928404674685 0.016418514339262134 -2.6129109744510965 3.3681598450446835 0.8704504864777249 -31.144672033731446 3.9674313441403655 1.248172252763408 -34.956271518117084 0.966061952966215 0.06764260739543022 -8.010958015282904 7.567597672048341 4.030409465853422 -37.46598398741667 2.51393196491244 0.4733745806602183 -21.313078205716092 0.571489478581384 0.023713175167902875 -4.740975156300843 8.675818429203998 1.4073051832666996 3.7592341254816617 24.306685835434422 7.549351786420721 0.4560750189338116 11.983706652850868 2.9615481654821374 0.8166599804964759 9.92582171836182 2.023240741439363 8.148293429454448 54.076513238115474 -14.453603299492283 26.955712752794717 9.356116306259635 0.000002587209941417647 0.000009657582387644453 2.6000177895046903 -2.1221615763424317 4.385717762317168 -2.2259413752803168 0.14603592583436115 31.922605253022585 -3.3144279426230403 0.846579603861268 28.58063216370857 -1.124065197566488 0.08936244270990769 9.178982834541857 -7.44585274231012 2.9303897128346454 26.536043860860083 -2.8114955126480843 0.5631134994802734 24.478543939665027 -0.7115433753673469 0.021387985828096215 5.375748428673037 -6.809444214629719 2.5812570750197614 26.281875926901716 -2.7299536017299824 0.5801880613908276 23.844334945268045 -1.3735637565946022 0.12855061797255748 11.034153008618185 -6.934835321723404 2.7154097665263954 27.129598359811357 -2.2644566269727426 0.37121929641802187 18.700744530733488 -0.7372106359904219 0.03979580357907965 5.954629080800823 -8.930812572111591 -7.873376520999049 -4.46659972364735 -27.36296509410418 10.757063371709279 -3.9849498273170747 -6.725832740103361 1.22853257933107 -2.1749206672542187 7.641047518777262 -5.328392454453682 3.113175078249241 8.53786811840366 22.80944806930118 5.538087601027198 0.8433941158095835 -14.117984528314468 -5.35824588472869 -0.00000781297261898698 -1.2933672052692502 -5.677673935568948e-7 -5.8693778339051565 -4.723164545920754 -1.0004968115919795 -10.823167212217426 23.129603213553022 -4.810847804428182 -0.6364343590493474 -16.200890684667595 3.179411712214418 -0.0000014762012698612648 -3.8740916429999728 -0.0000010166505467248195
-0.055152739990841256 8.840661482377485 1.4013520110524447 0.4027741452327208 -7.677950529857619 -0.41921696445916806 -0.14696515484945386 1.2788281530159242 0.1374899459479126 -0.5750066581608748 5.0721081479140695 0.4292509352901988 0 0 0 -0.46321404954415196 4.758750350938649 0.5908374781899309 -1.3512000385919936 5.296651115884826 -0.7776253012815518 0 0 0 0 0 0 -15.102029027080238 1.470973881661797 -0.998358517188463 -21.929485833309503 -26.854952261184888 -53.53141687665731 -19.240086624676316 -0.00002736260769077261 0.000007586625019015041 0.32052888585359024 21.11025453389847 -15.419378279357465 -1.343755212023269 -2.46436289136824 -35.3108704620451 3.520803017472349 0.9601193754193438 -30.482737881369463 0.6241330352738824 0.028865411185004547 -5.241909085720234 8.317783346217414 4.831985570675484 -39.33545346216382 -3.136084492387281 0.0858581780424952 -8.36541389278865 0.3085667461282947 0.01651893613349751 -2.6233222596110357 3.4186059669798485 0.9010880799819291 -31.100156461426806 3.9675355626433073 1.2482545547282602 -34.95735562528058 0.9678031761089618 0.06788772064462092 -8.025685534965303 7.605150393301062 4.059261615017589 -37.45924034183695 2.513817152606543 0.4733344519293801 -21.312194747955083 0.5738300078313491 0.02390475231900777 -4.760354104567567 8.666966663543322 1.4301426250965865 3.4364145038648353 24.519082291976513 7.606125802090659 0.46176758834726395 11.958397837099689 2.95186329818638 0.818824976283131 10.06426469481029 2.0396477758076723 8.101057978939538 54.04204623250757 -14.404836821580242 26.738552193827157 9.460742321239385 -0.000008623348648765484 0.000013083004564479091 2.5905258034208054 -1.76692117792334 4.551870553972301 -2.2403465661316395 0.15830266870413626 31.824706553817418 -3.316738855363643 0.8478459953430152 28.602359012923092 -1.1282484293119621 0.09003278257569525 9.213692185962588 -7.400735901970388 2.9065393478038137 26.529869386637316 -2.8153445995172772 0.5647378291568999 24.51282108782348 -0.7136191960842895 0.021540517836787686 5.392745213029062 -6.805328631118734 2.5795356159486467 26.28655456815863 -2.7315987116540525 0.580925386145509 23.859030470671108 -1.376410210901808 0.12908197334835544 11.058104767968368 -6.927724160230692 2.7124754704400256 27.1392759814196 -2.2646916411240112 0.3712890938788322 18.702665812421422 -0.7395420146865054 0.04004498214729485 5.973887333771589 -8.918871375361334 -7.880307967316106 -4.535695719323886 -27.3573480609774 10.755388726584501 -3.9834157824198297 -6.72089779164503 1.2267048707748338 -2.1745727713354146 7.717766961202193 -5.111451615899662 3.1937584762020435 8.555748836902078 22.82526113272687 5.52370507728713 0.8478274646446757 -14.101628820972369 -5.39753394168392 0.00000461847558947011 -1.1927703696215033 -4.880593191271736e-7 -5.909150205783357 -4.471895369620427 -1.0095094043038961 -10.732562849596805 23.111703005583003 -4.757979187413227 -0.6312380371077432 -16.127377485785754 3.1705072740468814 0.000012853482848452367 -3.8692533648077294 -0.0000010179962501281576
-0.05758656696839766 8.838592009110883 1.4222727807872606 0.35923524430796083 -7.746225378610947 -0.424878356143927 -0.13896814321473835 1.2561711404875588 0.1417366977432036 -0.5422217583838365 4.970167389429425 0.44440704155532973 0 0 0 -0.4540711191672652 4.752446583135737 0.5874174641112416 -1.2990914568203462 5.261381967787779 -0.8034685089236967 0 0 0 0 0 0 -15.053265527737972 1.4729805917631875 -0.9365441465374 -21.384960889561498 -26.52688481442956 -54.023954735886754 -18.816635942967814 -0.000004107263077448689 0.000012243443163210565 0.20188102501147429 20.83143636723079 -15.323174057596676 -1.222272325478912 -2.3954024156337614 -35.424698546538046 3.5166754914731335 0.9577016834733693 -30.443095028446177 0.627320355667583 0.029152992868412986 -5.268498046528851 8.290188951051798 4.801542624557813 -39.27226193425582 -3.13950219469891 0.08527180831642417 -8.336711136488235 0.3098893658799812 0.016606653041681615 -2.6342974817099454 3.4757818338179307 0.9356800685037344 -31.054722480112257 3.967564338639075 1.2482759041359057 -34.95749778458358 0.9695867618134405 0.06814435984742902 -8.040671077927621 7.6457675364614675 4.0904819327500785 -37.452120084384255 2.513665875361088 0.47328204978387445 -21.31080077063943 0.5764296253331599 0.024127945778517342 -4.782136916161878 8.66465443880952 1.457754322187492 3.105933848382737 24.7496060446738 7.66790386777696 0.46832403638951814 11.933048482729244 2.9421443192844348 0.8210091141846695 10.133351175788649 2.047941913499376 8.116051708635228 53.87472490167906 -14.347293798680088 26.76174915685418 9.524238453737834 0.0000015264353133881766 -0.000007596087092859083 2.5718652780962468 -1.4897128902445893 4.667505689003955 -2.257958466645666 0.17269520468503846 31.718967940363584 -3.3191179335219148 0.8491221533475112 28.624382719277506 -1.13278664429055 0.0907816630576559 9.251403768671674 -7.3511398124830185 2.8803783876547846 26.523609617745343 -2.8192379879672242 0.5664103464919804 24.54753921397916 -0.715950307041757 0.021730147313740938 5.411948405121111 -6.802726145489669 2.5787758415307978 26.29371278381565 -2.7330046373319004 0.5815290351731217 23.87163723536477 -1.3793959547485797 0.12967461383168608 11.083009716396402 -6.919426557225338 2.709145014544896 27.152294371934683 -2.264646077280957 0.3712665751261252 18.702249480816327 -0.7420378378371221 0.040320761108015864 5.9944901948576295 -8.90590599336348 -7.887911833646351 -4.602984477107862 -27.34783027298164 10.752510479155637 -3.980797459302571 -6.716434804577939 1.2250524405651513 -2.1742598255376557 7.79537879371337 -4.912569053794463 3.2678483508083183 8.562911574899442 22.828547723880916 5.500525116805021 0.8469098767080083 -13.983565094849157 -5.438276350764701 0.000008476283454298592 -1.0990793120886495 2.1141358974547273e-7 -5.939253871345785 -4.256699152608781 -1.0220311005052947 -10.646847973467754 23.106072202541288 -4.717905710253809 -0.6276871753746126 -16.004183528312936 3.1790983854808137 0.000006926749676893121 -3.862402464911482 -7.097219799796656e-7
